<?xml version="1.0" encoding="UTF-8" standalone="no"?><svg xmlns="http://www.w3.org/2000/svg" xmlns:xlink="http://www.w3.org/1999/xlink" fill="#000000" height="44" preserveAspectRatio="xMidYMid meet" version="1" viewBox="0.0 0.0 44.0 44.0" width="44" zoomAndPan="magnify"><g fill="#26567b" id="change1_1"><path d="M 15.007812 15.933594 C 15.238281 15.976562 15.515625 16.027344 15.792969 16.070312 L 15.976562 19.359375 C 15.976562 19.636719 16.210938 19.824219 16.488281 19.824219 L 17.96875 19.824219 C 18.246094 19.824219 18.433594 19.636719 18.480469 19.359375 L 18.664062 16.070312 C 18.941406 16.027344 19.175781 15.976562 19.453125 15.933594 C 19.636719 15.886719 19.730469 15.703125 19.730469 15.5625 L 19.542969 14.171875 C 19.453125 13.292969 18.710938 12.644531 17.832031 12.644531 L 16.628906 12.644531 C 15.746094 12.644531 15.007812 13.292969 14.914062 14.171875 L 14.726562 15.5625 C 14.726562 15.746094 14.820312 15.933594 15.007812 15.933594"/><path d="M 18.851562 10.46875 C 18.851562 11.363281 18.125 12.089844 17.230469 12.089844 C 16.332031 12.089844 15.609375 11.363281 15.609375 10.46875 C 15.609375 9.574219 16.332031 8.847656 17.230469 8.847656 C 18.125 8.847656 18.851562 9.574219 18.851562 10.46875"/><path d="M 24.59375 15.933594 C 24.824219 15.976562 25.101562 16.027344 25.378906 16.070312 L 25.566406 19.359375 C 25.566406 19.636719 25.796875 19.824219 26.074219 19.824219 L 27.558594 19.824219 C 27.835938 19.824219 28.019531 19.636719 28.066406 19.359375 L 28.25 16.070312 C 28.53125 16.027344 28.761719 15.976562 29.039062 15.933594 C 29.222656 15.886719 29.316406 15.703125 29.316406 15.5625 L 29.132812 14.171875 C 29.039062 13.292969 28.296875 12.644531 27.417969 12.644531 L 26.167969 12.644531 C 25.289062 12.644531 24.546875 13.292969 24.453125 14.171875 L 24.269531 15.5625 C 24.269531 15.746094 24.40625 15.933594 24.59375 15.933594"/><path d="M 28.390625 10.46875 C 28.390625 11.363281 27.664062 12.089844 26.769531 12.089844 C 25.875 12.089844 25.148438 11.363281 25.148438 10.46875 C 25.148438 9.574219 25.875 8.847656 26.769531 8.847656 C 27.664062 8.847656 28.390625 9.574219 28.390625 10.46875"/><path d="M 17.832031 27.972656 L 16.628906 27.972656 C 15.746094 27.972656 15.007812 28.621094 14.914062 29.503906 L 14.726562 30.894531 C 14.726562 31.078125 14.820312 31.261719 15.007812 31.261719 C 15.238281 31.308594 15.515625 31.355469 15.792969 31.402344 L 15.976562 34.691406 C 15.976562 34.96875 16.210938 35.152344 16.488281 35.152344 L 17.96875 35.152344 C 18.246094 35.152344 18.433594 34.96875 18.480469 34.691406 L 18.664062 31.402344 C 18.941406 31.355469 19.175781 31.308594 19.453125 31.261719 C 19.636719 31.21875 19.730469 31.03125 19.730469 30.894531 L 19.542969 29.503906 C 19.40625 28.621094 18.664062 27.972656 17.832031 27.972656"/><path d="M 18.851562 25.796875 C 18.851562 26.695312 18.125 27.417969 17.230469 27.417969 C 16.332031 27.417969 15.609375 26.695312 15.609375 25.796875 C 15.609375 24.902344 16.332031 24.175781 17.230469 24.175781 C 18.125 24.175781 18.851562 24.902344 18.851562 25.796875"/><path d="M 27.371094 27.972656 L 26.167969 27.972656 C 25.289062 27.972656 24.546875 28.621094 24.453125 29.503906 L 24.269531 30.894531 C 24.269531 31.078125 24.363281 31.261719 24.546875 31.261719 C 24.777344 31.308594 25.054688 31.355469 25.332031 31.402344 L 25.519531 34.691406 C 25.519531 34.96875 25.75 35.152344 26.027344 35.152344 L 27.511719 35.152344 C 27.789062 35.152344 27.972656 34.96875 28.019531 34.691406 L 28.207031 31.402344 C 28.484375 31.355469 28.714844 31.308594 28.992188 31.261719 C 29.175781 31.21875 29.269531 31.03125 29.269531 30.894531 L 29.085938 29.503906 C 28.992188 28.621094 28.25 27.972656 27.371094 27.972656"/><path d="M 28.390625 25.796875 C 28.390625 26.695312 27.664062 27.417969 26.769531 27.417969 C 25.875 27.417969 25.148438 26.695312 25.148438 25.796875 C 25.148438 24.902344 25.875 24.175781 26.769531 24.175781 C 27.664062 24.175781 28.390625 24.902344 28.390625 25.796875"/><path d="M 14.914062 23.296875 L 14.726562 21.90625 C 14.636719 21.027344 13.894531 20.378906 13.015625 20.378906 L 11.808594 20.378906 C 10.929688 20.378906 10.1875 21.027344 10.097656 21.90625 L 9.910156 23.296875 C 9.910156 23.480469 10.003906 23.667969 10.191406 23.667969 C 10.421875 23.714844 10.699219 23.761719 10.976562 23.804688 L 11.160156 27.09375 C 11.160156 27.371094 11.394531 27.558594 11.671875 27.558594 L 13.152344 27.558594 C 13.429688 27.558594 13.617188 27.371094 13.664062 27.09375 L 13.847656 23.804688 C 14.125 23.761719 14.355469 23.714844 14.636719 23.667969 C 14.820312 23.621094 14.914062 23.480469 14.914062 23.296875"/><path d="M 14.03125 18.203125 C 14.03125 19.097656 13.308594 19.824219 12.410156 19.824219 C 11.515625 19.824219 10.792969 19.097656 10.792969 18.203125 C 10.792969 17.304688 11.515625 16.582031 12.410156 16.582031 C 13.308594 16.582031 14.03125 17.304688 14.03125 18.203125"/><path d="M 24.5 23.296875 L 24.316406 21.90625 C 24.222656 21.027344 23.480469 20.378906 22.601562 20.378906 L 21.398438 20.378906 C 20.519531 20.378906 19.777344 21.027344 19.683594 21.90625 L 19.5 23.296875 C 19.5 23.480469 19.59375 23.667969 19.777344 23.667969 C 20.054688 23.714844 20.285156 23.761719 20.5625 23.804688 L 20.75 27.09375 C 20.75 27.371094 20.980469 27.558594 21.257812 27.558594 L 22.742188 27.558594 C 23.019531 27.558594 23.203125 27.371094 23.25 27.09375 L 23.433594 23.804688 C 23.714844 23.761719 23.945312 23.714844 24.222656 23.667969 C 24.40625 23.621094 24.5 23.480469 24.5 23.296875"/><path d="M 23.621094 18.203125 C 23.621094 19.097656 22.894531 19.824219 22 19.824219 C 21.105469 19.824219 20.378906 19.097656 20.378906 18.203125 C 20.378906 17.304688 21.105469 16.582031 22 16.582031 C 22.894531 16.582031 23.621094 17.304688 23.621094 18.203125"/><path d="M 32.1875 20.378906 L 30.984375 20.378906 C 30.105469 20.378906 29.363281 21.027344 29.269531 21.90625 L 29.085938 23.296875 C 29.085938 23.480469 29.179688 23.667969 29.363281 23.667969 C 29.640625 23.714844 29.871094 23.761719 30.152344 23.804688 L 30.335938 27.09375 C 30.335938 27.371094 30.566406 27.558594 30.84375 27.558594 L 32.328125 27.558594 C 32.605469 27.558594 32.789062 27.371094 32.835938 27.09375 L 33.023438 23.804688 C 33.300781 23.761719 33.53125 23.714844 33.808594 23.667969 C 33.996094 23.621094 34.085938 23.433594 34.085938 23.296875 L 33.902344 21.90625 C 33.808594 21.027344 33.070312 20.378906 32.1875 20.378906"/><path d="M 33.207031 18.203125 C 33.207031 19.097656 32.480469 19.824219 31.585938 19.824219 C 30.691406 19.824219 29.964844 19.097656 29.964844 18.203125 C 29.964844 17.304688 30.691406 16.582031 31.585938 16.582031 C 32.480469 16.582031 33.207031 17.304688 33.207031 18.203125"/><path d="M 33.855469 33.855469 C 27.324219 40.386719 16.671875 40.386719 10.144531 33.855469 C 6.949219 30.707031 5.234375 26.492188 5.234375 22 C 5.234375 17.507812 6.992188 13.292969 10.144531 10.144531 C 13.429688 6.855469 17.691406 5.234375 22 5.234375 C 26.304688 5.234375 30.613281 6.855469 33.855469 10.144531 C 37.003906 13.292969 38.765625 17.507812 38.765625 22 C 38.765625 26.492188 37.050781 30.707031 33.855469 33.855469 Z M 42.886719 7.550781 C 43.488281 7.550781 44 7.039062 44 6.4375 L 44 1.113281 C 44 0.511719 43.488281 0 42.886719 0 L 37.605469 0 C 37.003906 0 36.496094 0.511719 36.496094 1.113281 C 36.496094 1.714844 37.003906 2.222656 37.605469 2.222656 L 40.199219 2.222656 L 34.597656 7.828125 C 27.417969 1.4375 16.535156 1.4375 9.355469 7.828125 L 3.796875 2.222656 L 6.390625 2.222656 C 6.992188 2.222656 7.503906 1.714844 7.503906 1.113281 C 7.503906 0.507812 6.992188 0 6.390625 0 L 1.113281 0 C 0.507812 0 0 0.511719 0 1.113281 L 0 6.390625 C 0 6.992188 0.507812 7.503906 1.113281 7.503906 C 1.714844 7.503906 2.222656 6.992188 2.222656 6.390625 L 2.222656 3.796875 L 7.78125 9.355469 C 4.722656 12.875 3.011719 17.277344 3.011719 22 C 3.011719 26.722656 4.722656 31.125 7.828125 34.597656 L 2.269531 40.15625 L 2.269531 37.5625 C 2.269531 36.957031 1.761719 36.449219 1.15625 36.449219 C 0.554688 36.449219 0.046875 36.957031 0.046875 37.5625 L 0.046875 42.84375 C 0.046875 43.441406 0.554688 43.953125 1.15625 43.953125 L 6.4375 43.953125 C 7.039062 43.953125 7.550781 43.441406 7.550781 42.84375 C 7.550781 42.238281 7.039062 41.730469 6.4375 41.730469 L 3.84375 41.730469 L 9.449219 36.125 C 12.96875 39.367188 17.460938 40.988281 22 40.988281 C 26.539062 40.988281 31.03125 39.367188 34.597656 36.171875 L 40.199219 41.777344 L 37.605469 41.777344 C 37.003906 41.777344 36.496094 42.285156 36.496094 42.886719 C 36.496094 43.488281 37.003906 44 37.605469 44 L 42.886719 44 C 43.488281 44 44 43.488281 44 42.886719 L 44 37.605469 C 44 37.007812 43.488281 36.496094 42.886719 36.496094 C 42.285156 36.496094 41.773438 37.007812 41.773438 37.605469 L 41.773438 40.199219 L 36.21875 34.644531 C 39.273438 31.125 40.988281 26.722656 40.988281 22 C 40.988281 17.277344 39.273438 12.875 36.171875 9.402344 L 41.730469 3.84375 L 41.730469 6.4375 C 41.777344 7.039062 42.285156 7.550781 42.886719 7.550781"/></g></svg>