<?xml version="1.0" encoding="UTF-8" standalone="no"?><svg xmlns="http://www.w3.org/2000/svg" xmlns:xlink="http://www.w3.org/1999/xlink" fill="#000000" height="500" preserveAspectRatio="xMidYMid meet" version="1" viewBox="0.0 0.0 315.6 500.0" width="315.6" zoomAndPan="magnify"><g id="change1_1"><path d="M231.672,248.405c0.895-0.499,1.786-1.006,2.671-1.523c0.011-0.007,0.022-0.013,0.034-0.02 c3.544-2.072,7.005-4.285,10.381-6.636c0.202-0.14,0.404-0.28,0.606-0.421c0.672-0.473,1.34-0.953,2.006-1.437 c0.29-0.211,0.58-0.423,0.869-0.636c0.621-0.458,1.24-0.919,1.854-1.386c0.329-0.25,0.656-0.505,0.984-0.758 c0.586-0.453,1.172-0.905,1.751-1.366c0.363-0.289,0.722-0.586,1.083-0.878c0.889-0.721,1.772-1.452,2.648-2.194 c0.506-0.429,1.013-0.856,1.515-1.291c0.409-0.355,0.812-0.717,1.218-1.076c0.506-0.449,1.012-0.899,1.514-1.355 c0.387-0.352,0.771-0.707,1.155-1.063c0.525-0.487,1.047-0.978,1.567-1.472c0.353-0.336,0.705-0.672,1.055-1.012 c0.577-0.559,1.148-1.125,1.718-1.694c0.287-0.286,0.575-0.569,0.86-0.858c0.852-0.863,1.698-1.735,2.534-2.621 c29.571-31.323,45.857-72.899,45.857-117.068V17.673c0-9.76-7.912-17.673-17.673-17.673s-17.673,7.912-17.673,17.673v58.155H35.345 V17.673C35.345,7.912,27.433,0,17.673,0S0,7.912,0,17.673v75.828v8.138c0,44.169,16.286,85.745,45.857,117.068 c12.066,12.781,25.81,23.27,40.951,31.293c0,0,0.001,0,0.001-0.001c-15.141,8.023-28.886,18.513-40.952,31.294 C16.286,312.616,0,354.192,0,398.361v83.966C0,492.088,7.912,500,17.673,500s17.673-7.912,17.673-17.673v-58.155h244.858v58.155 c0,9.76,7.912,17.673,17.673,17.673s17.673-7.912,17.673-17.673V406.5v-8.139c0-44.169-16.286-85.745-45.857-117.068 c-12.066-12.781-25.81-23.27-40.951-31.293c0.911-0.483,1.817-0.976,2.719-1.477C231.53,248.484,231.601,248.444,231.672,248.405z M280.164,104.935c-0.008,0.331-0.024,0.66-0.034,0.991c0.044-1.424,0.073-2.851,0.073-4.286 C280.203,102.741,280.19,103.839,280.164,104.935z M279.961,109.747c-0.02,0.346-0.039,0.691-0.062,1.036 c0.082-1.251,0.144-2.508,0.192-3.768c-0.015,0.396-0.024,0.794-0.043,1.19C280.025,108.721,279.99,109.233,279.961,109.747z M279.876,111.173c-0.006,0.09-0.01,0.181-0.016,0.271c-0.04,0.578-0.091,1.153-0.139,1.729c-0.041,0.494-0.078,0.988-0.123,1.48 c-0.058,0.623-0.126,1.243-0.192,1.864c-0.047,0.439-0.09,0.879-0.141,1.316c-0.077,0.664-0.164,1.325-0.251,1.987 c-0.051,0.386-0.099,0.773-0.152,1.158c-0.098,0.703-0.205,1.404-0.314,2.103c-0.052,0.336-0.102,0.672-0.157,1.007 c-0.12,0.739-0.249,1.475-0.381,2.21c-0.052,0.29-0.102,0.58-0.156,0.868c-0.143,0.769-0.295,1.535-0.451,2.299 c-0.051,0.249-0.101,0.498-0.153,0.747c-0.168,0.8-0.344,1.598-0.526,2.392c-0.047,0.204-0.093,0.408-0.14,0.612 c-0.194,0.831-0.396,1.659-0.605,2.484c-0.041,0.162-0.082,0.324-0.123,0.486c-0.221,0.859-0.45,1.714-0.686,2.566 c-0.034,0.123-0.069,0.246-0.103,0.37c-0.249,0.885-0.505,1.766-0.771,2.642c-0.026,0.085-0.052,0.171-0.078,0.256 c-0.277,0.91-0.563,1.815-0.859,2.716c-0.016,0.047-0.031,0.095-0.047,0.142c-0.308,0.934-0.624,1.864-0.951,2.788 c-0.004,0.01-0.007,0.02-0.011,0.03c-0.336,0.949-0.681,1.892-1.037,2.831H44.238c-4.664-12.307-7.629-25.536-8.566-39.356H279.876z M44.271,150.617c1.209,3.182,2.531,6.303,3.962,9.356C46.801,156.92,45.48,153.799,44.271,150.617z M48.274,160.062 c0.692,1.473,1.412,2.929,2.154,4.369C49.686,162.991,48.966,161.535,48.274,160.062z M50.625,164.813 c0.731,1.408,1.484,2.802,2.262,4.178C52.109,167.615,51.356,166.222,50.625,164.813z M53.079,169.326 c1.581,2.78,3.258,5.491,5.023,8.13C56.336,174.817,54.66,172.106,53.079,169.326z M58.392,177.893 c0.837,1.24,1.696,2.462,2.571,3.669C60.088,180.355,59.229,179.134,58.392,177.893z M61.407,182.17 c0.876,1.193,1.77,2.372,2.684,3.531C63.177,184.542,62.283,183.363,61.407,182.17z M64.23,185.875h187.088 c-0.103,0.13-0.206,0.261-0.31,0.391c-0.474,0.594-0.952,1.183-1.436,1.768c-0.202,0.244-0.404,0.488-0.608,0.731 c-0.492,0.587-0.99,1.168-1.492,1.745c-0.199,0.229-0.397,0.458-0.598,0.686c-0.522,0.591-1.05,1.176-1.581,1.757 c-0.187,0.205-0.373,0.411-0.562,0.615c-0.567,0.611-1.141,1.215-1.719,1.814c-0.159,0.165-0.316,0.332-0.475,0.495 c-0.651,0.668-1.31,1.327-1.974,1.979c-0.09,0.089-0.179,0.18-0.27,0.268c-2.32,2.264-4.72,4.434-7.198,6.505 c-0.066,0.055-0.134,0.109-0.2,0.164c-0.742,0.617-1.49,1.226-2.245,1.826c-0.178,0.141-0.359,0.279-0.538,0.419 c-0.647,0.508-1.297,1.011-1.954,1.506c-0.235,0.177-0.473,0.35-0.709,0.525c-0.607,0.45-1.216,0.897-1.831,1.335 c-0.27,0.193-0.542,0.382-0.813,0.572c-0.589,0.413-1.181,0.823-1.778,1.226c-0.29,0.196-0.582,0.389-0.873,0.583 c-0.586,0.388-1.174,0.772-1.766,1.15c-0.303,0.194-0.608,0.386-0.913,0.577c-0.59,0.369-1.183,0.732-1.779,1.091 c-0.309,0.186-0.619,0.372-0.929,0.555c-0.603,0.356-1.211,0.705-1.82,1.05c-0.307,0.174-0.614,0.349-0.923,0.521 c-0.626,0.347-1.257,0.686-1.89,1.023c-0.296,0.158-0.591,0.318-0.889,0.473c-0.669,0.348-1.342,0.686-2.018,1.022 c-0.266,0.132-0.53,0.268-0.796,0.398c-0.761,0.371-1.527,0.73-2.296,1.084c-0.185,0.085-0.367,0.174-0.552,0.258 c-1.94,0.882-3.904,1.713-5.893,2.489c-0.117,0.046-0.236,0.088-0.353,0.133c-0.861,0.333-1.725,0.657-2.594,0.97 c-0.283,0.102-0.569,0.197-0.852,0.296c-0.708,0.248-1.418,0.495-2.132,0.729c-0.347,0.114-0.696,0.222-1.045,0.333 c-0.655,0.209-1.31,0.415-1.97,0.612c-0.384,0.115-0.771,0.224-1.157,0.335c-0.629,0.181-1.259,0.359-1.892,0.53 c-0.406,0.109-0.813,0.214-1.22,0.319c-0.62,0.16-1.242,0.316-1.866,0.465c-0.418,0.1-0.837,0.197-1.256,0.293 c-0.619,0.141-1.239,0.277-1.861,0.408c-0.426,0.09-0.852,0.178-1.28,0.263c-0.624,0.124-1.25,0.241-1.877,0.355 c-0.427,0.077-0.854,0.155-1.282,0.227c-0.637,0.108-1.277,0.208-1.918,0.306c-0.421,0.064-0.841,0.13-1.263,0.189 c-0.661,0.093-1.325,0.176-1.99,0.258c-0.405,0.05-0.809,0.103-1.215,0.149c-0.707,0.079-1.418,0.147-2.129,0.213 c-0.365,0.034-0.73,0.074-1.096,0.104c-0.826,0.069-1.656,0.124-2.486,0.176c-0.254,0.016-0.507,0.038-0.761,0.052 c-1.1,0.061-2.203,0.107-3.31,0.137c0,0,0,0,0,0c-1.036-0.021-2.072-0.04-3.111-0.04c-1.039,0-2.075,0.02-3.111,0.04 C118.441,231.357,86.081,213.501,64.23,185.875z M146.919,232.681c0.163-0.012,0.326-0.021,0.489-0.032 C147.245,232.66,147.082,232.669,146.919,232.681z M150.786,232.455c0.095-0.004,0.191-0.007,0.286-0.011 C150.977,232.448,150.881,232.45,150.786,232.455z M143.056,233.006c0.222-0.021,0.444-0.041,0.665-0.061 C143.499,232.965,143.277,232.984,143.056,233.006z M140.019,233.333c-0.272,0.032-0.545,0.063-0.817,0.097 C139.474,233.396,139.746,233.365,140.019,233.333z M136.306,233.816c-0.316,0.045-0.632,0.091-0.947,0.138 C135.675,233.906,135.99,233.861,136.306,233.816z M132.592,234.393c-0.355,0.06-0.71,0.121-1.065,0.184 C131.882,234.515,132.237,234.453,132.592,234.393z M128.885,235.066c-0.395,0.077-0.79,0.157-1.184,0.237 C128.096,235.222,128.49,235.142,128.885,235.066z M125.186,235.833c-0.434,0.096-0.868,0.196-1.302,0.296 C124.318,236.03,124.751,235.929,125.186,235.833z M121.492,236.698c-0.472,0.117-0.942,0.24-1.412,0.361 C120.551,236.938,121.021,236.815,121.492,236.698z M117.81,237.66c-0.51,0.14-1.018,0.288-1.526,0.434 C116.792,237.948,117.3,237.8,117.81,237.66z M114.138,238.72c-0.55,0.167-1.098,0.342-1.647,0.516 C113.04,239.062,113.588,238.886,114.138,238.72z M110.483,239.876c-0.6,0.198-1.197,0.408-1.794,0.614 C109.287,240.284,109.883,240.075,110.483,239.876z M106.841,241.132c-0.662,0.238-1.32,0.489-1.979,0.736 C105.522,241.621,106.18,241.369,106.841,241.132z M103.214,242.486c-0.766,0.298-1.529,0.611-2.292,0.921 C101.686,243.097,102.448,242.784,103.214,242.486z M99.605,243.94c-1.201,0.502-2.398,1.019-3.59,1.553 C97.207,244.959,98.404,244.442,99.605,243.94z M91.611,247.56c-0.197,0.096-0.393,0.194-0.59,0.291 C91.217,247.754,91.414,247.656,91.611,247.56z M156.519,267.651C156.519,267.651,156.519,267.651,156.519,267.651 c-0.56,0.008-1.12,0.011-1.679,0.025c0.977,0.019,1.954,0.038,2.934,0.038c1.033,0,2.063-0.02,3.093-0.04c0,0,0,0,0,0c0,0,0,0,0,0 c0.338,0.009,0.675,0.027,1.012,0.039c0.684,0.024,1.368,0.047,2.05,0.083c0.408,0.022,0.813,0.053,1.219,0.079 c0.61,0.039,1.221,0.076,1.829,0.124c0.435,0.035,0.867,0.079,1.3,0.118c0.577,0.053,1.154,0.103,1.728,0.164 c0.447,0.048,0.891,0.104,1.337,0.156c0.557,0.066,1.115,0.131,1.67,0.205c0.454,0.06,0.906,0.129,1.359,0.195 c0.542,0.079,1.085,0.157,1.625,0.243c0.458,0.073,0.915,0.154,1.372,0.232c0.531,0.092,1.062,0.183,1.59,0.282 c0.46,0.086,0.918,0.178,1.376,0.269c0.521,0.104,1.043,0.209,1.562,0.32c0.459,0.098,0.917,0.202,1.375,0.306 c0.514,0.117,1.027,0.235,1.538,0.358c0.458,0.111,0.915,0.226,1.371,0.342c0.507,0.129,1.013,0.261,1.517,0.396 c0.456,0.123,0.91,0.249,1.364,0.377c0.499,0.141,0.997,0.285,1.493,0.432c0.455,0.135,0.91,0.273,1.363,0.414 c0.49,0.152,0.979,0.308,1.466,0.467c0.454,0.148,0.907,0.297,1.359,0.45c0.484,0.164,0.966,0.332,1.447,0.503 c0.449,0.159,0.898,0.319,1.345,0.483c0.477,0.175,0.952,0.356,1.427,0.538c0.448,0.171,0.895,0.343,1.341,0.519 c0.468,0.186,0.933,0.377,1.398,0.569c0.445,0.183,0.89,0.366,1.333,0.555c0.462,0.197,0.921,0.4,1.38,0.603 c0.441,0.195,0.883,0.388,1.321,0.588c0.453,0.207,0.902,0.42,1.352,0.633c0.44,0.208,0.881,0.413,1.318,0.626 c0.441,0.215,0.878,0.437,1.317,0.657c0.439,0.221,0.88,0.439,1.317,0.665c0.43,0.223,0.856,0.454,1.283,0.682 c0.439,0.235,0.881,0.466,1.317,0.706c0.407,0.224,0.81,0.457,1.215,0.685c0.451,0.255,0.904,0.506,1.351,0.766 c0.36,0.209,0.714,0.427,1.072,0.64c1.837,1.095,3.645,2.239,5.422,3.431c0.296,0.198,0.595,0.392,0.889,0.593 c0.484,0.331,0.961,0.671,1.44,1.009c0.321,0.226,0.645,0.449,0.964,0.678c0.469,0.337,0.932,0.684,1.397,1.028 c0.323,0.239,0.647,0.475,0.968,0.717c0.46,0.348,0.915,0.704,1.37,1.058c0.317,0.247,0.637,0.491,0.952,0.742 c0.452,0.359,0.898,0.725,1.345,1.09c0.313,0.255,0.627,0.509,0.937,0.767c0.444,0.37,0.883,0.747,1.322,1.123 c0.305,0.262,0.612,0.522,0.915,0.787c0.437,0.382,0.87,0.77,1.301,1.158c0.298,0.268,0.597,0.536,0.893,0.807 c0.43,0.394,0.856,0.793,1.281,1.194c0.29,0.273,0.579,0.545,0.866,0.821c0.425,0.408,0.846,0.82,1.266,1.235 c0.279,0.276,0.558,0.552,0.835,0.83c0.42,0.422,0.836,0.848,1.25,1.277c0.269,0.278,0.538,0.558,0.805,0.839 c0.415,0.437,0.827,0.877,1.236,1.32c0.256,0.278,0.512,0.557,0.766,0.837c0.412,0.455,0.822,0.912,1.228,1.373 c0.244,0.276,0.485,0.555,0.727,0.833c0.408,0.472,0.814,0.945,1.216,1.423c0.23,0.274,0.458,0.549,0.686,0.825 c0.406,0.491,0.81,0.984,1.209,1.481c0.214,0.267,0.426,0.536,0.638,0.805c0.405,0.513,0.809,1.028,1.207,1.549 c0.195,0.255,0.388,0.513,0.581,0.77c0.408,0.541,0.814,1.083,1.213,1.631c0.172,0.236,0.341,0.474,0.511,0.711 c0.414,0.576,0.827,1.152,1.232,1.736c0.142,0.204,0.281,0.412,0.422,0.617c0.204,0.297,0.405,0.597,0.606,0.896 c-1.856-2.752-3.808-5.426-5.854-8.012H64.231C86.455,286.03,119.549,268.05,156.519,267.651z M258.137,323.582 c0.448,0.684,0.894,1.37,1.33,2.063c0.035,0.055,0.068,0.111,0.102,0.166c0.127,0.202,0.249,0.408,0.375,0.611 c-0.852-1.375-1.727-2.731-2.626-4.069c0.17,0.253,0.344,0.503,0.513,0.758C257.934,323.267,258.034,323.426,258.137,323.582z M269.165,344.138c0.067,0.155,0.129,0.313,0.195,0.469c-0.633-1.493-1.295-2.97-1.979-4.433c0.57,1.219,1.127,2.446,1.662,3.686 C269.083,343.954,269.125,344.045,269.165,344.138z M270.338,346.966c0.305,0.759,0.601,1.523,0.893,2.29 c0.027,0.072,0.055,0.143,0.082,0.214c-0.596-1.574-1.223-3.131-1.875-4.674c0.24,0.569,0.479,1.139,0.712,1.712 C270.212,346.661,270.276,346.813,270.338,346.966z M267.191,339.77c-0.69-1.464-1.403-2.913-2.143-4.345 C265.788,336.857,266.501,338.306,267.191,339.77z M264.968,335.271c-1.527-2.946-3.157-5.821-4.885-8.623 C261.811,329.45,263.441,332.325,264.968,335.271z M35.454,393.055c0.578-15.351,3.644-30.028,8.782-43.585h227.078 c0.045,0.119,0.092,0.237,0.136,0.356c0.279,0.744,0.55,1.492,0.817,2.243c0.077,0.217,0.156,0.433,0.232,0.651 c0.258,0.737,0.508,1.479,0.754,2.223c0.077,0.232,0.155,0.464,0.23,0.697c0.239,0.737,0.471,1.477,0.698,2.22 c0.074,0.243,0.149,0.486,0.222,0.73c0.221,0.738,0.436,1.48,0.645,2.224c0.071,0.251,0.141,0.503,0.211,0.755 c0.204,0.743,0.402,1.489,0.595,2.237c0.066,0.255,0.131,0.511,0.195,0.767c0.188,0.751,0.371,1.505,0.547,2.261 c0.059,0.254,0.117,0.509,0.175,0.764c0.173,0.762,0.34,1.526,0.5,2.292c0.053,0.252,0.103,0.504,0.155,0.756 c0.157,0.776,0.31,1.554,0.454,2.334c0.045,0.241,0.087,0.483,0.13,0.724c0.143,0.795,0.281,1.592,0.41,2.392 c0.037,0.228,0.071,0.456,0.106,0.684c0.128,0.817,0.251,1.636,0.364,2.459c0.028,0.206,0.054,0.412,0.081,0.618 c0.113,0.849,0.222,1.7,0.319,2.554c0.019,0.167,0.035,0.335,0.054,0.502c0.099,0.895,0.193,1.793,0.275,2.693 c0.01,0.107,0.017,0.214,0.027,0.321c0.086,0.964,0.164,1.929,0.23,2.899v0H35.669C35.574,390.23,35.507,391.641,35.454,393.055z M35.345,398.361c0-1.435,0.03-2.862,0.073-4.286C35.375,395.499,35.345,396.926,35.345,398.361z" fill="#26567b"/></g><g id="change2_1"><path d="M251.318,314.125c8.306,10.501,15.093,22.411,19.995,35.346H33.07c-9.76,0-17.673-7.912-17.673-17.673 c0-9.76,7.912-17.673,17.673-17.673H251.318z M283.024,150.53H44.236c4.902,12.933,11.682,24.846,19.987,35.346h218.801 c9.76,0,17.673-7.912,17.673-17.673C300.697,158.442,292.784,150.53,283.024,150.53z" fill="#26567b"/></g><g id="change3_1"><path d="M315.549,406.5c0,9.76-7.912,17.673-17.673,17.673H35.345v-25.811c0-3.206,0.11-6.385,0.324-9.534h262.207 C307.636,388.827,315.549,396.739,315.549,406.5z M280.203,101.639V75.828H17.673C7.912,75.828,0,83.74,0,93.501 c0,9.76,7.912,17.673,17.673,17.673h262.206C280.093,108.025,280.203,104.845,280.203,101.639z" fill="#26567b"/></g><g id="change4_1"><path d="M315.549,406.5v75.828c0,9.76-7.912,17.673-17.673,17.673s-17.673-7.912-17.673-17.673v-58.155h17.673 C307.636,424.172,315.549,416.26,315.549,406.5z M269.692,281.293c-14.469-15.326-31.345-27.371-50.158-35.8 c-19.56-8.763-40.339-13.207-61.76-13.207c-9.76,0-17.673,7.912-17.673,17.673c0,9.76,7.912,17.673,17.673,17.673 c64.505,0,117.513,53.545,122.102,121.195h18c9.76,0,17.673,7.912,17.673,17.673v-8.139 C315.549,354.192,299.263,312.616,269.692,281.293z M17.673,75.828h17.673V17.673C35.345,7.912,27.433,0,17.673,0S0,7.912,0,17.673 v75.828C0,83.74,7.912,75.828,17.673,75.828z M35.671,111.173H17.673C7.912,111.173,0,103.261,0,93.501v8.138 c0,44.169,16.286,85.745,45.857,117.068c12.066,12.781,25.81,23.27,40.951,31.293c3.016-1.598,6.082-3.107,9.207-4.507 c18.612-8.338,38.328-12.757,58.649-13.166C91.573,230.638,40.186,177.733,35.671,111.173z" fill="#26567b"/></g><g id="change5_1"><path d="M25.955,483.415c-0.601,4.574-4.796,7.795-9.37,7.194s-7.795-4.796-7.194-9.37s4.796-7.795,9.37-7.194 S26.556,478.842,25.955,483.415z M34.158,323.516c-4.574-0.601-8.769,2.62-9.37,7.194s2.62,8.769,7.194,9.37s8.769-2.62,9.37-7.194 C41.953,328.312,38.732,324.117,34.158,323.516z M159.136,241.677c-4.574-0.601-8.769,2.62-9.37,7.194s2.62,8.769,7.194,9.37 s8.769-2.62,9.37-7.194S163.71,242.278,159.136,241.677z M284.112,159.921c-4.574-0.601-8.769,2.62-9.37,7.194 s2.62,8.769,7.194,9.37s8.769-2.62,9.37-7.194S288.686,160.522,284.112,159.921z M16.585,101.782c4.574,0.601,8.769-2.62,9.37-7.194 s-2.62-8.769-7.194-9.37s-8.769,2.62-9.37,7.194S12.011,101.182,16.585,101.782z M298.964,474.046 c-4.574-0.601-8.769,2.62-9.37,7.194s2.62,8.769,7.194,9.37s8.769-2.62,9.37-7.194S303.538,474.646,298.964,474.046z M16.585,25.609 c4.574,0.601,8.769-2.62,9.37-7.194s-2.62-8.769-7.194-9.37s-8.769,2.62-9.37,7.194S12.011,25.008,16.585,25.609z M296.788,25.609 c4.574,0.601,8.769-2.62,9.37-7.194s-2.62-8.769-7.194-9.37s-8.769,2.62-9.37,7.194S292.214,25.008,296.788,25.609z M298.964,398.218c-4.574-0.601-8.769,2.62-9.37,7.194s2.62,8.769,7.194,9.37s8.769-2.62,9.37-7.194 S303.538,398.819,298.964,398.218z" fill="#26567b"/></g></svg>