<?xml version="1.0" encoding="UTF-8" standalone="no"?><svg xmlns="http://www.w3.org/2000/svg" xmlns:xlink="http://www.w3.org/1999/xlink" fill="#000000" height="497.5" preserveAspectRatio="xMidYMid meet" version="1" viewBox="0.0 0.0 441.3 497.5" width="441.3" zoomAndPan="magnify"><g id="change1_1"><path d="M132.89,160.95c-44.37,0-80.47-36.1-80.47-80.47S88.52,0,132.89,0s80.47,36.1,80.47,80.47 S177.26,160.95,132.89,160.95z M132.89,15c-36.1,0-65.47,29.37-65.47,65.47c0,36.1,29.37,65.47,65.47,65.47 s65.47-29.37,65.47-65.47C198.36,44.37,168.99,15,132.89,15z M234.89,203.99c0.86-0.13,1.7-0.41,2.47-0.84 C236.52,203.4,235.7,203.69,234.89,203.99z M239.08,201.81c-0.52,0.55-1.1,0.99-1.72,1.34c0.72-0.24,1.46-0.45,2.2-0.65 C239.39,202.27,239.24,202.04,239.08,201.81z M433.68,217.18c-2.7-2.71-6.2-6.49-10.24-10.87c-9.74-10.54-21.85-23.65-33-32.66 c-5.56-4.49-11.95-6.09-18.49-4.88c0.3-2.64,0.45-5.34,0.45-8.06c0-40.26-32.75-73.02-73.01-73.02s-73.01,32.76-73.01,73.02 c0,8.16,1.35,16.01,3.82,23.34c-13.26-9.4-29.05-14.47-45.45-14.47H79.03C35.45,169.58,0,205.04,0,248.61v175.66 c0,24.87,18.35,45.54,42.23,49.17v16.61c0,4.14,3.36,7.5,7.5,7.5s7.5-3.36,7.5-7.5V466.5c0-4.14-3.36-7.5-7.5-7.5 C30.58,459,15,443.42,15,424.27V248.61c0-35.3,28.72-64.03,64.03-64.03h105.72c12.33,0,24.23,3.55,34.48,10.15 c-22.12,12.43-36.63,36.07-36.63,62.63v152.91c0,24,16.39,45.16,39.05,51.66v28.12c0,4.14,3.36,7.5,7.5,7.5s7.5-3.36,7.5-7.5 v-34.13c0-3.69-2.69-6.84-6.34-7.41c-18.65-2.93-32.71-19.37-32.71-38.24V257.36c0-24.19,15.2-45.29,37.29-53.37 c0.81-0.3,1.63-0.59,2.47-0.84c0.62-0.35,1.2-0.79,1.72-1.34c0.16,0.23,0.31,0.46,0.48,0.69c13.21,18.86,35.1,31.22,59.83,31.22 c13.17,0,25.53-3.51,36.21-9.64c0.84,27.1,23,48.89,50.12,48.89c5.74,0,11.95-1.33,18.04-3.64v140.94 c0,18.87-14.08,35.31-32.73,38.24c-3.65,0.57-6.34,3.72-6.34,7.41v34.13c0,4.14,3.36,7.5,7.5,7.5c4.14,0,7.5-3.36,7.5-7.5v-28.12 c22.67-6.49,39.07-27.66,39.07-51.66V261.52c8.68-5.87,15.8-13.41,19-21.15C441.32,231.78,439.83,223.33,433.68,217.18z M299.39,218.72c-31.99,0-58.01-26.03-58.01-58.01c0-31.99,26.02-58.02,58.01-58.02s58.01,26.03,58.01,58.02 C357.4,192.69,331.38,218.72,299.39,218.72z M423.91,234.63c-2.36,5.69-8.74,11.66-16.23,16.14c-0.2,0.12-0.41,0.25-0.62,0.37 c-7,4.08-14.89,6.83-21.34,6.83c-19.38,0-35.15-15.92-35.15-35.49c0-3.57,0.7-7.63,2.04-11.85c6.3-6.71,11.35-14.6,14.77-23.31 c7.95-6.59,12.19-3.16,13.63-2c10.3,8.32,22,20.99,31.41,31.17c4.15,4.5,7.74,8.38,10.66,11.3 C424.42,229.13,425.45,230.89,423.91,234.63z" fill="#26567b"/></g></svg>