<?xml version="1.0" encoding="UTF-8" standalone="no"?><svg xmlns="http://www.w3.org/2000/svg" xmlns:xlink="http://www.w3.org/1999/xlink" data-name="Layer 1" fill="#26567b" height="96" preserveAspectRatio="xMidYMid meet" version="1" viewBox="18.0 16.0 93.3 96.0" width="93.3" zoomAndPan="magnify"><g id="change1_1"><path d="M80,16H24a6.0048,6.0048,0,0,0-6,6v84a6.0048,6.0048,0,0,0,6,6H80a6.0048,6.0048,0,0,0,6-6V76.24L69.24,93H65V88.76l21-21V22A6.0048,6.0048,0,0,0,80,16ZM42,35H62a2,2,0,0,1,0,4H42a2,2,0,0,1,0-4ZM32,53H73a2,2,0,0,1,0,4H32a2,2,0,0,1,0-4Zm0,18H64.03a2,2,0,0,1,0,4H32a2,2,0,0,1,0-4ZM56,93H32a2,2,0,0,1,0-4H56a2,2,0,0,1,0,4Z" fill="inherit"/></g><g id="change1_2"><path d="M108.96,50.45l-1.41-1.41a6.0114,6.0114,0,0,0-8.49,0L86,62.1,61.59,86.51A2.0061,2.0061,0,0,0,61,87.93V95a2.0059,2.0059,0,0,0,2,2h7.07a2.0061,2.0061,0,0,0,1.42-.59L86,81.9l22.96-22.96A6.0114,6.0114,0,0,0,108.96,50.45Zm-2.83,5.66L69.24,93H65V88.76l36.89-36.89a2.0038,2.0038,0,0,1,2.83,0l1.41,1.41A2.0038,2.0038,0,0,1,106.13,56.11Z" fill="inherit"/></g><g id="change1_3"><path d="M104.54,62.54a1.9934,1.9934,0,0,1-1.414-.5859l-7.07-7.07a2,2,0,0,1,2.8281-2.8281l7.07,7.07A2,2,0,0,1,104.54,62.54Z" fill="inherit"/></g></svg>