<?xml version="1.0" encoding="UTF-8" standalone="no"?><svg xmlns="http://www.w3.org/2000/svg" xmlns:xlink="http://www.w3.org/1999/xlink" fill="#26567b" height="44.9" preserveAspectRatio="xMidYMid meet" version="1" viewBox="1.6 1.6 44.9 44.9" width="44.9" zoomAndPan="magnify"><g data-name="Layer 25" id="change1_1"><path d="M24,1.55957A22.44043,22.44043,0,1,0,46.44043,24,22.46532,22.46532,0,0,0,24,1.55957ZM41.25781,24.70508h3.14691a20.32657,20.32657,0,0,1-5.14434,12.84649l-2.35022-2.34942a.99989.99989,0,0,0-1.41407,1.41406l2.36426,2.36347A20.33368,20.33368,0,0,1,25,44.38977v-3.4259a1,1,0,0,0-2,0v3.4259a20.33257,20.33257,0,0,1-12.86023-5.41022l2.36414-2.36334a.99989.99989,0,0,0-1.41407-1.41406L8.73975,37.55139a20.32664,20.32664,0,0,1-5.144-12.84631H6.7417a1,1,0,0,0,0-2h-3.116a20.33518,20.33518,0,0,1,5.3949-12.56537L11.08984,12.209a.99989.99989,0,1,0,1.41407-1.41406L10.44867,8.73969A20.32509,20.32509,0,0,1,23,3.61023v2.837a1,1,0,0,0,2,0v-2.837A20.32626,20.32626,0,0,1,37.55145,8.73956l-2.05536,2.05536A.99989.99989,0,1,0,36.91016,12.209l2.06939-2.06939a20.33481,20.33481,0,0,1,5.39527,12.56549h-3.117a1,1,0,0,0,0,2Z" fill="inherit"/><path d="M24.4209,23.166l-3.106-11.79a.99983.99983,0,1,0-1.93359.50976L22.562,23.96a1.0019,1.0019,0,0,0,.291.48242l6.36181,5.832a1.00015,1.00015,0,0,0,1.35157-1.47461Z" fill="inherit"/></g></svg>