<?xml version="1.0" encoding="UTF-8" standalone="no"?><svg xmlns="http://www.w3.org/2000/svg" xmlns:xlink="http://www.w3.org/1999/xlink" fill="#26567b" height="460" preserveAspectRatio="xMidYMid meet" version="1" viewBox="42.2 21.0 430.7 460.0" width="430.7" zoomAndPan="magnify"><g><g id="change1_1"><path d="M283.298,448.25c-0.086,0.046-0.17,0.095-0.256,0.139c-0.501,0.26-1.008,0.501-1.521,0.728 c-0.125,0.056-0.252,0.107-0.378,0.162c-0.423,0.181-0.849,0.351-1.277,0.51c-0.122,0.045-0.244,0.093-0.366,0.137 c-0.523,0.185-1.05,0.355-1.581,0.51c-0.115,0.033-0.23,0.062-0.345,0.093c-0.443,0.122-0.889,0.232-1.336,0.332 c-0.142,0.031-0.283,0.063-0.425,0.093c-0.544,0.112-1.091,0.211-1.641,0.29c-0.077,0.011-0.155,0.018-0.232,0.028 c-0.485,0.064-0.973,0.115-1.461,0.154c-0.15,0.012-0.3,0.023-0.45,0.032c-0.561,0.035-1.124,0.06-1.689,0.06 c-2.211,0-4.383-0.271-6.477-0.797c-4.608-1.157-8.843-3.55-12.306-7.012l-8.369-8.37c-0.526,6.184-3.145,12.148-7.826,16.829 c-0.156,0.156-0.346,0.336-0.553,0.526c-1.745,1.65-3.678,3.043-5.76,4.15c-2.897,6.369-1.544,14.237,3.493,19.274 c3.147,3.148,7.4,4.882,11.975,4.882c4.575,0,8.828-1.733,11.975-4.881l28.29-28.707c-0.068,0.042-0.141,0.077-0.21,0.118 C284.153,447.781,283.728,448.022,283.298,448.25z"/><path d="M300.206,431.019l-3.169-3.169c-0.072,0.624-0.174,1.246-0.289,1.866c-0.029,0.154-0.059,0.309-0.091,0.462 c-0.126,0.618-0.266,1.234-0.435,1.845c-0.006,0.021-0.013,0.04-0.019,0.06c-0.166,0.595-0.358,1.184-0.565,1.77 c-0.053,0.149-0.107,0.299-0.162,0.448c-0.224,0.6-0.461,1.195-0.728,1.782c-0.014,0.03-0.029,0.061-0.044,0.09 c-0.257,0.563-0.54,1.116-0.837,1.665c-0.075,0.141-0.151,0.28-0.23,0.419c-0.073,0.13-0.14,0.263-0.215,0.392l7.153-7.259 c-0.117-0.117-0.234-0.234-0.351-0.352C300.219,431.03,300.212,431.024,300.206,431.019z"/><path d="M197.227,452.123c-0.003-0.004-0.006-0.007-0.01-0.01l-22.561-23.266l-52.134-52.134L77.41,421.173 c-6.465,6.466-6.465,17.434,0.026,23.925c3.148,3.147,7.4,4.881,11.975,4.881s8.828-1.733,11.975-4.881l21.212-20.505 c1.974-1.909,5.116-1.869,7.041,0.09c1.924,1.957,1.911,5.1-0.03,7.041c-3.148,3.146-4.881,7.274-4.881,11.622 c0,4.348,1.733,8.475,4.881,11.623c3.147,3.146,7.4,4.88,11.975,4.88c4.575,0,8.828-1.733,11.975-4.88l17.626-17.626 c1.954-1.953,5.119-1.952,7.071,0c1.953,1.952,1.953,5.118,0,7.07c-6.186,6.187-6.167,16.359,0.01,23.248 c3.481,3.147,7.815,4.878,12.229,4.878c4.404,0,8.563-1.733,11.711-4.88l8.569-8.241c-5.11-1.043-9.78-3.525-13.504-7.25 L197.227,452.123z"/><path d="M89.401,315.372l66.321-66.322c-3.526-4.428-5.049-9.441-4.374-14.45c0.007-0.061,0.018-0.122,0.025-0.184 c0.045-0.311,0.1-0.621,0.162-0.931c0.041-0.221,0.065-0.441,0.115-0.662c2.954-13.137,19.554-22.166,46.248-25.542l1.887-2.265 c0.097-0.116,0.198-0.227,0.305-0.334l2.115-2.115c0.372-0.372,0.798-0.654,1.244-0.885l3.766-3.955l-47.292-47.292L42.185,268.84 l46.897,46.897C89.185,315.612,89.286,315.487,89.401,315.372z M82.955,269.907c0-1.998,0.785-3.883,2.209-5.307 c1.421-1.423,3.306-2.208,5.305-2.208c1.999,0,3.884,0.785,5.308,2.21c1.422,1.422,2.207,3.307,2.207,5.305 c0,1.998-0.785,3.883-2.209,5.307c-1.423,1.423-3.307,2.207-5.305,2.207c-1.998,0-3.882-0.784-5.306-2.208 C83.739,273.79,82.955,271.905,82.955,269.907z"/><path d="M365.847,373.276c-0.024-0.024-0.049-0.048-0.072-0.072L244.431,251.861c-2.24,0.602-4.501,1.223-6.775,1.847 c-4.495,1.233-9.034,2.476-13.571,3.628c-7.497,1.903-14.992,3.555-22.284,4.472c-0.126,0.017-0.25,0.027-0.376,0.043 c-3.772,0.462-7.491,0.73-11.126,0.73c-1.187,0-2.347-0.028-3.485-0.085c-0.405-0.02-0.791-0.061-1.19-0.089 c-0.722-0.049-1.449-0.092-2.151-0.164c-0.463-0.048-0.908-0.12-1.363-0.179c-0.616-0.078-1.238-0.148-1.839-0.245 c-0.477-0.077-0.934-0.179-1.4-0.268c-0.558-0.106-1.123-0.203-1.668-0.326c-0.47-0.106-0.923-0.238-1.384-0.357 c-0.521-0.134-1.048-0.259-1.558-0.41c-0.455-0.135-0.894-0.294-1.34-0.441c-0.494-0.164-0.995-0.319-1.479-0.499 c-0.438-0.163-0.859-0.35-1.288-0.525c-0.473-0.194-0.951-0.381-1.413-0.591c-0.416-0.189-0.818-0.402-1.226-0.604 c-0.392-0.194-0.793-0.373-1.177-0.58c-1.042-0.383-2.099-0.892-3.117-1.492l-64.522,65.142l7.152,25.032l20.233,20.232 c0,0.001,0.001,0.001,0.002,0.002l55.698,55.698l22.478,23.179c3.499,3.054,8.083,4.802,12.605,4.802 c1.929,0,3.779-0.317,5.499-0.943c0.065-0.023,0.132-0.032,0.198-0.053c0.011-0.004,0.021-0.008,0.032-0.012 c0.401-0.285,0.833-0.526,1.308-0.685c0.847-0.282,2.447-1.333,3.65-2.352c0.249-0.221,0.504-0.433,0.741-0.67 c6.469-6.469,6.651-16.896,0.424-24.257c-1.731-2.046-1.541-5.094,0.432-6.909c1.715-1.577,4.243-1.731,6.12-0.502 c0.283,0.186,0.553,0.398,0.801,0.647l22.561,22.561c3.147,3.147,7.307,4.88,11.711,4.88c4.413,0,8.748-1.73,12.229-4.878 c0.386-0.431,0.748-0.873,1.085-1.327c0.107-0.144,0.196-0.295,0.298-0.44c0.221-0.315,0.446-0.629,0.645-0.954 c0.101-0.166,0.183-0.339,0.278-0.507c0.178-0.313,0.361-0.623,0.518-0.942c0.103-0.207,0.183-0.421,0.276-0.631 c0.128-0.287,0.265-0.571,0.377-0.863c0.094-0.244,0.164-0.493,0.246-0.74c0.088-0.263,0.186-0.522,0.262-0.788 c0.075-0.265,0.126-0.534,0.188-0.801c0.059-0.251,0.129-0.5,0.176-0.751c0.05-0.267,0.076-0.535,0.113-0.803 c0.035-0.255,0.082-0.508,0.106-0.763c0.025-0.276,0.027-0.552,0.039-0.827c0.012-0.247,0.035-0.494,0.035-0.74 c0-0.287-0.024-0.571-0.038-0.856c-0.012-0.234-0.011-0.47-0.032-0.703c-0.026-0.287-0.077-0.569-0.118-0.853 c-0.033-0.229-0.054-0.46-0.097-0.688c-0.053-0.279-0.13-0.553-0.197-0.829c-0.055-0.228-0.098-0.458-0.162-0.683 c-0.077-0.267-0.18-0.526-0.271-0.789c-0.079-0.228-0.146-0.459-0.234-0.683c-0.102-0.253-0.227-0.497-0.341-0.745 c-0.104-0.226-0.194-0.455-0.31-0.676c-0.122-0.235-0.269-0.461-0.403-0.691c-0.13-0.223-0.249-0.451-0.392-0.668 c-0.147-0.226-0.317-0.438-0.477-0.655c-0.154-0.211-0.296-0.428-0.462-0.632c-0.167-0.207-0.358-0.4-0.538-0.599 c-0.186-0.207-0.359-0.42-0.559-0.619v-0.001c-0.488-0.488-0.854-1.052-1.099-1.653c-0.732-1.806-0.366-3.953,1.098-5.417 c0.488-0.488,1.053-0.854,1.654-1.099c0.602-0.244,1.241-0.366,1.881-0.366c1.28,0,2.56,0.488,3.536,1.464 c0.007,0.007,0.014,0.014,0.021,0.02l17.605,17.607c3.147,3.147,7.401,4.88,11.976,4.88c4.575,0,8.828-1.733,11.975-4.88 c3.148-3.148,4.881-7.276,4.881-11.623c0-4.348-1.733-8.476-4.881-11.622c-1.941-1.941-1.955-5.084-0.03-7.041 c1.925-1.958,5.068-1.998,7.04-0.09l21.151,20.445c3.208,3.207,7.461,4.94,12.036,4.94c4.574,0,8.827-1.733,11.976-4.881 c6.478-6.479,6.49-17.421,0.033-23.917L365.847,373.276z"/><path d="M295.536,199.223c-1.442,0.776-3.173,0.796-4.633,0.057c-9.512-4.827-17.657-7.173-24.902-7.173 c-11.202,0-18.653,5.712-26.542,11.761c-7.611,5.835-15.481,11.869-26.533,12.167c-0.613,0.028-1.205,0.064-1.806,0.098 c-1.766,0.257-3.415,0.42-4.893,0.56c-1.824,0.173-3.547,0.337-5.146,0.657c-0.063,0.013-0.126,0.009-0.188,0.019 c-0.081,0.013-0.158,0.039-0.24,0.048c-25.833,2.871-37.147,10.79-39.122,17.245c-0.085,0.279-0.15,0.554-0.202,0.828 c-0.008,0.05-0.018,0.101-0.025,0.151c-0.021,0.126-0.031,0.25-0.045,0.375c-0.367,4.32,3.084,8.815,9.461,12.203 c5.345,2.948,11.726,4.363,19.577,4.363c3.21,0,6.539-0.246,9.947-0.666c9.296-1.143,19.198-3.626,29.025-6.285 c0.4-0.108,0.799-0.219,1.199-0.328c0.619-0.169,1.238-0.341,1.856-0.51c0.896-0.245,1.792-0.5,2.685-0.745 c0.166-0.045,0.33-0.108,0.495-0.153c3.081-0.846,6.14-1.72,9.152-2.513c0.378-0.1,0.761-0.218,1.143-0.228 c0.044-0.001,0.087-0.152,0.13-0.152c0.001,0,0.002,0,0.003,0c0.295,0,0.587,0.179,0.876,0.23c0.064,0.011,0.126,0.169,0.19,0.183 c0.281,0.062,0.559,0.14,0.825,0.249c0.003,0.002,0.007,0.002,0.01,0.003c0.268,0.11,0.523,0.253,0.771,0.409 c0.059,0.038,0.116,0.076,0.173,0.116c0.242,0.168,0.475,0.35,0.688,0.562l119.878,119.878l33.552-32.93l6.679-25.502 L301.426,196.052L295.536,199.223z"/><path d="M355.209,141.259l-47.216,47.216l117.72,117.72l47.216-47.216L355.209,141.259z M425.055,265.363 c-1.912,0-3.72-0.754-5.088-2.125c-1.367-1.364-2.121-3.177-2.121-5.1c0-1.923,0.754-3.735,2.125-5.104 c0.089-0.09,0.183-0.176,0.278-0.259c1.33-1.14,3.037-1.768,4.806-1.768c1.912,0,3.686,0.721,4.994,2.031 c1.366,1.364,2.12,3.177,2.12,5.1c0,1.86-0.707,3.619-1.995,4.971C428.87,264.545,427.017,265.363,425.055,265.363z"/><path d="M92.955,269.907c0-0.664-0.263-1.308-0.722-1.766c-0.458-0.458-1.101-0.721-1.764-0.721c-0.664,0-1.307,0.263-1.765,0.722 c-0.457,0.457-0.721,1.101-0.721,1.765c0,0.664,0.263,1.308,0.722,1.766c0.912,0.914,2.614,0.916,3.531-0.002 C92.691,271.215,92.955,270.571,92.955,269.907z"/><path d="M425.055,255.363c-0.814,0-1.621,0.347-2.2,0.936c-0.438,0.501-0.686,1.161-0.686,1.84c0,0.739,0.295,1.458,0.809,1.971 c1.036,1.039,2.715,1.175,3.781,0.259l-3.255-3.796l3.533,3.537c0.514-0.513,0.809-1.232,0.809-1.971 c0-0.739-0.295-1.458-0.809-1.971C426.528,255.658,425.805,255.363,425.055,255.363z"/><path d="M248.438,151c35.841,0,65-29.159,65-65c0-2.761-2.238-5-5-5c-2.762,0-5,2.239-5,5c0,30.327-24.673,55-55,55 c-30.327,0-55-24.673-55-55s24.673-55,55-55c2.761,0,5-2.239,5-5s-2.239-5-5-5c-35.841,0-65,29.159-65,65S212.597,151,248.438,151 z"/><path d="M221.974,82.464c-1.953-1.952-5.118-1.952-7.071,0c-1.953,1.953-1.953,5.119,0,7.071l20,20 c0.972,0.972,2.252,1.464,3.537,1.464c1.133,0,2.269-0.383,3.2-1.159l60-50c2.121-1.768,2.408-4.921,0.64-7.042 c-1.767-2.122-4.921-2.409-7.042-0.641l-56.492,47.077L221.974,82.464z"/></g></g></svg>