<?xml version="1.0" encoding="utf-8" standalone="no"?><!-- Generator: Adobe Illustrator 16.0.0, SVG Export Plug-In . SVG Version: 6.00 Build 0)  --><svg xmlns="http://www.w3.org/2000/svg" xmlns:xlink="http://www.w3.org/1999/xlink" enable-background="new 0 0 350 350.014" fill="#000000" height="350.014px" id="Layer_1" version="1.1" viewBox="0 0 350 350.014" width="350px" x="0px" xml:space="preserve" y="0px">
<g id="change1">
	<path d="M350,175.014c0,96.728-78.315,175-175.007,175C78.315,350.014,0,271.741,0,175.014   C0,78.354,78.315,0,174.993,0C271.677,0,350,78.354,350,175.014z" fill="#26567b"/>
</g>
<g id="change2">
	<path d="M239.289,240.633l15.844,34.857c-5.588,3.027-11.981,5.503-19.268,7.398   c-7.264,1.91-14.337,2.864-21.156,2.864c-8.82,0-20.512-2.079-35.161-6.21c-14.635-4.152-25.484-6.231-32.522-6.231   c-11.919,0-24.05,4.244-36.449,12.753l-15.681-35.458c11.02-7.915,18.963-16.347,23.794-25.266   c4.831-8.934,7.258-17.45,7.258-25.556c0-2.61-0.185-5.419-0.58-8.34H94.887v-32.374h23.003c-4.018-11.516-6.013-23.2-6.013-35.013   c0-10.639,2.9-20.796,8.722-30.458c5.807-9.669,14.033-17.019,24.679-22.047c10.652-5.033,22.245-7.548,34.85-7.548   c19.246,0,34.581,4.866,46.005,14.589c11.416,9.712,18.391,23.649,20.958,41.82l-39.724,5.832   c-1.854-10.454-5.22-17.962-10.094-22.557c-4.888-4.598-11.006-6.879-18.319-6.879c-7.816,0-14.31,2.6-19.466,7.831   c-5.185,5.227-7.773,11.791-7.773,19.706c0,4.099,0.714,9.517,2.129,16.261c1.415,6.734,3.147,12.885,5.191,18.454h45.722v32.368   h-38.98c0.297,2.149,0.445,4.3,0.445,6.45c0,7.71-1.464,14.868-4.399,21.39c-2.907,6.536-8.912,15.165-18.001,25.804   c5.375-2.745,12.116-4.089,20.215-4.089c3.417,0,6.486,0.17,9.21,0.58c1.365,0.185,5.375,1.104,12.018,2.787   c11.812,3.027,19.868,4.541,24.169,4.541C217.015,248.838,226.988,246.094,239.289,240.633z" fill="#ffffff"/>
</g>
</svg>