<?xml version="1.0" encoding="UTF-8" standalone="no"?><svg xmlns="http://www.w3.org/2000/svg" xmlns:xlink="http://www.w3.org/1999/xlink" data-name="Layer 1" fill="#26567b" height="970.4" preserveAspectRatio="xMidYMid meet" version="1" viewBox="82.4 114.8 1035.3 970.4" width="1035.3" zoomAndPan="magnify"><g id="change1_1"><path d="M1035.42,1085.18H164.58A80.67,80.67,0,0,1,84,1004.61V422a80.67,80.67,0,0,1,80.58-80.57h870.84A80.67,80.67,0,0,1,1116,422v582.58A80.67,80.67,0,0,1,1035.42,1085.18ZM164.58,373.46A48.63,48.63,0,0,0,116,422v582.58a48.63,48.63,0,0,0,48.58,48.57h870.84a48.63,48.63,0,0,0,48.58-48.57V422a48.63,48.63,0,0,0-48.58-48.57Z"/></g><g id="change1_2"><path d="M794.83,373.46H405.17a16,16,0,0,1-16-16V226.9A112.21,112.21,0,0,1,501.25,114.82h197.5A112.21,112.21,0,0,1,810.83,226.9V357.46A16,16,0,0,1,794.83,373.46Zm-373.66-32H778.83V226.9a80.17,80.17,0,0,0-80.08-80.08H501.25a80.17,80.17,0,0,0-80.08,80.08Z"/></g><g id="change1_3"><path d="M727.91,373.46H472.09a16,16,0,0,1-16-16V260.17a78.51,78.51,0,0,1,78.43-78.43h131a78.51,78.51,0,0,1,78.43,78.43v97.29A16,16,0,0,1,727.91,373.46Zm-239.82-32H711.91V260.17a46.48,46.48,0,0,0-46.43-46.43h-131a46.48,46.48,0,0,0-46.43,46.43Z"/></g><g id="change1_4"><path d="M719.53,703.94a16,16,0,0,1-2.44-31.81,756.63,756.63,0,0,0,372.58-170.08,16,16,0,0,1,20.66,24.43A788.55,788.55,0,0,1,722,703.75,16.12,16.12,0,0,1,719.53,703.94Z"/></g><g id="change1_5"><path d="M480.47,703.94a16.12,16.12,0,0,1-2.48-.19A788.55,788.55,0,0,1,89.67,526.48a16,16,0,0,1,20.66-24.43A756.63,756.63,0,0,0,482.91,672.13a16,16,0,0,1-2.44,31.81Z"/></g><g id="change1_6"><path d="M719.55,792.3H480.45a16,16,0,0,1-16-16V618a16,16,0,0,1,16-16h239.1a16,16,0,0,1,16,16V776.3A16,16,0,0,1,719.55,792.3Zm-223.1-32h207.1V634H496.45Z"/></g><g id="change1_7"><path d="M600,729.32a16,16,0,0,1-16-16V618a16,16,0,0,1,32,0v95.28A16,16,0,0,1,600,729.32Z"/></g></svg>