<?xml version="1.0" encoding="UTF-8" standalone="no"?><svg xmlns="http://www.w3.org/2000/svg" xmlns:xlink="http://www.w3.org/1999/xlink" fill="#000000" height="500" preserveAspectRatio="xMidYMid meet" version="1" viewBox="0.0 0.0 444.9 500.0" width="444.9" zoomAndPan="magnify"><g id="change1_1"><path d="M444.942,75.742c0-31.137-25.332-56.469-56.469-56.469c-31.137,0-56.468,25.332-56.468,56.469 c0,24.982,16.313,46.214,38.842,53.636v238.345c0,53.499-43.525,97.024-97.024,97.024H91.589c-19.869,0-36.033-16.165-36.033-36.034 c0-19.868,16.164-36.033,36.033-36.033c27.072,0,47.389-7.22,60.387-21.46c11.04-12.095,16.407-28.394,16.407-49.827v-7.101 c33.138-3.639,63.853-17.33,87.91-39.465c28.756-26.458,44.592-61.754,44.592-99.383V135.44V17.865c0-0.04-0.006-0.079-0.006-0.119 c0-0.04,0.006-0.079,0.006-0.119C300.885,7.892,292.993,0,283.258,0h-56.239c-9.735,0-17.626,7.892-17.626,17.626 s7.892,17.626,17.626,17.626h38.612V135.44c0,18.371-11.098,36.108-31.25,49.943c-22.179,15.226-51.989,23.611-83.939,23.611 c0,0,0,0,0,0s0,0,0,0c-31.95,0-61.76-8.385-83.939-23.611c-20.152-13.835-31.251-31.572-31.251-49.943V35.253h38.612 c9.735,0,17.626-7.892,17.626-17.626S83.6,0,73.865,0H17.626C7.892,0,0,7.892,0,17.626c0,0.04,0.006,0.079,0.006,0.119 c0,0.04-0.006,0.079-0.006,0.119V135.44v40.005c0,37.63,15.837,72.925,44.592,99.383c24.208,22.275,55.16,35.994,88.537,39.529 v7.037c0,22.821-6.797,36.034-41.541,36.034c-39.307,0-71.286,31.979-71.286,71.286S52.281,500,91.589,500h182.234 c8.833,0,17.534-0.86,26.007-2.54c25.419-5.041,48.789-17.465,67.527-36.203c15.615-15.615,26.845-34.446,33.072-55 c0.623-2.055,1.195-4.128,1.717-6.216s0.993-4.192,1.413-6.311c1.68-8.473,2.54-17.174,2.54-26.007V129.378 C428.628,121.956,444.942,100.724,444.942,75.742z M42.254,211.366c1.403,1.044,2.83,2.074,4.297,3.081 c27.993,19.217,64.889,29.801,103.892,29.801s75.898-10.584,103.892-29.801c1.466-1.007,2.893-2.037,4.297-3.081 c-16.173,40.024-58.567,68.658-108.188,68.658c0,0,0,0,0,0s0,0,0,0C100.821,280.024,58.427,251.39,42.254,211.366z M388.473,96.958 c-11.698,0-21.215-9.517-21.215-21.216c0-11.698,9.517-21.216,21.215-21.216c11.699,0,21.216,9.517,21.216,21.216 C409.689,87.441,400.172,96.958,388.473,96.958z" fill="#26567b"/></g><g id="change2_1"><path d="M0,175.445c0,9.735,7.892,17.626,17.626,17.626s17.626-7.892,17.626-17.626 c0,57.665,51.674,104.579,115.189,104.579c9.735,0,17.627,7.892,17.627,17.626s-7.892,17.626-17.626,17.626 c-39.91,0-77.502-14.365-105.85-40.449C15.837,248.37,0,213.075,0,175.445z M73.962,375.054c0-9.735,7.892-17.626,17.626-17.626 c-39.307,0-71.286,31.979-71.286,71.286c0-9.735,7.892-17.626,17.626-17.626s17.626,7.892,17.626,17.626 c0-19.868,16.164-36.033,36.033-36.033C81.854,392.68,73.962,384.789,73.962,375.054z M388.473,96.958 c-9.735,0-17.626,7.892-17.626,17.626v253.139c0-9.735,7.892-17.626,17.626-17.626s17.626,7.892,17.626,17.626V114.584 C406.1,104.849,398.208,96.958,388.473,96.958z M273.823,464.747H91.589c9.735,0,17.626,7.892,17.626,17.626S101.323,500,91.589,500 h182.234c-9.735,0-17.626-7.892-17.626-17.626S264.088,464.747,273.823,464.747z M283.258,0h-56.239 c-9.735,0-17.626,7.892-17.626,17.626s7.892,17.626,17.626,17.626h56.239c9.735,0,17.626-7.892,17.626-17.626S292.993,0,283.258,0z" fill="#26567b"/></g><g id="change3_1"><path d="M17.626,35.253h17.626v140.192c0,9.735-7.892,17.626-17.626,17.626S0,185.18,0,175.445V17.865 c0-0.04,0.006-0.079,0.006-0.119C0.071,27.425,7.932,35.253,17.626,35.253z M388.473,19.274c-31.137,0-56.468,25.332-56.468,56.469 c0,24.982,16.313,46.214,38.842,53.636v-14.794c0-9.735,7.892-17.626,17.626-17.626c-11.698,0-21.215-9.517-21.215-21.216 c0-11.698,9.517-21.216,21.215-21.216c11.699,0,21.216,9.517,21.216,21.216c0,11.698-9.517,21.216-21.216,21.216 c9.735,0,17.626,7.892,17.626,17.626v14.794c22.529-7.423,38.842-28.654,38.842-53.636C444.942,44.605,419.61,19.274,388.473,19.274 z M234.381,185.383c-22.179,15.226-51.989,23.611-83.939,23.611c-9.735,0-17.626,7.892-17.626,17.626s7.892,17.626,17.626,17.626 c39.003,0,75.898-10.584,103.892-29.801c1.466-1.007,2.893-2.037,4.297-3.081c4.529-11.207,7.001-23.307,7.001-35.921V135.44 C265.632,153.812,254.534,171.548,234.381,185.383z" fill="#26567b"/></g><g id="change4_1"><path d="M300.885,175.445c0,37.63-15.836,72.925-44.592,99.383c-28.348,26.084-65.94,40.449-105.85,40.449 c9.735,0,17.626-7.892,17.626-17.626c0-9.735-7.892-17.626-17.627-17.626c0,0,0,0,0,0c63.516,0,115.189-46.914,115.189-104.579 c0-9.735,7.892-17.626,17.626-17.626S300.885,165.71,300.885,175.445z M132.816,226.621c0-9.735,7.892-17.626,17.626-17.626 c0,0,0,0,0,0c-31.95,0-61.76-8.385-83.939-23.611c-20.152-13.835-31.251-31.572-31.251-49.943v40.005 c0,12.614,2.473,24.714,7.001,35.921c1.403,1.044,2.83,2.074,4.297,3.081c27.993,19.217,64.889,29.801,103.892,29.801 C140.708,244.248,132.816,236.356,132.816,226.621z" fill="#26567b"/></g><g id="change5_1"><path d="M25.886,18.712c-0.599,4.562-4.783,7.774-9.345,7.175c-4.562-0.599-7.774-4.783-7.175-9.345 c0.599-4.562,4.783-7.774,9.345-7.175C23.274,9.966,26.486,14.15,25.886,18.712z M284.344,9.605 c-4.562-0.599-8.746,2.613-9.345,7.175s2.613,8.746,7.175,9.345s8.746-2.613,9.345-7.175S288.906,10.204,284.344,9.605z M18.712,167.066c-4.562-0.599-8.746,2.613-9.345,7.175c-0.599,4.562,2.613,8.746,7.175,9.345c4.562,0.599,8.746-2.613,9.345-7.175 C26.486,171.849,23.274,167.665,18.712,167.066z M284.344,167.304c-4.562-0.599-8.746,2.613-9.345,7.175 c-0.599,4.562,2.613,8.746,7.175,9.345c4.562,0.599,8.746-2.613,9.345-7.175C292.118,172.088,288.906,167.903,284.344,167.304z M151.842,290.219c-4.562-0.599-8.746,2.613-9.345,7.175s2.613,8.746,7.175,9.345s8.746-2.613,9.345-7.175 S156.404,290.818,151.842,290.219z M93.452,366.794c-4.562-0.599-8.746,2.613-9.345,7.175c-0.599,4.562,2.613,8.746,7.175,9.345 c4.562,0.599,8.746-2.613,9.345-7.175S98.014,367.393,93.452,366.794z M39.014,420.453c-4.562-0.599-8.746,2.613-9.345,7.175 c-0.599,4.562,2.613,8.746,7.175,9.345s8.746-2.613,9.345-7.175C46.788,425.237,43.576,421.053,39.014,420.453z M93.452,474.114 c-4.562-0.599-8.746,2.613-9.345,7.175c-0.599,4.562,2.613,8.746,7.175,9.345c4.562,0.599,8.746-2.613,9.345-7.175 S98.014,474.713,93.452,474.114z M274.908,474.114c-4.562-0.599-8.746,2.613-9.345,7.175s2.613,8.746,7.175,9.345 c4.562,0.599,8.746-2.613,9.345-7.175C282.682,478.897,279.47,474.713,274.908,474.114z M389.558,359.463 c-4.562-0.599-8.746,2.613-9.345,7.175c-0.599,4.562,2.613,8.746,7.175,9.345s8.746-2.613,9.345-7.175 S394.12,360.063,389.558,359.463z M389.558,105.985c-4.562-0.599-8.746,2.613-9.345,7.175c-0.599,4.562,2.613,8.746,7.175,9.345 s8.746-2.613,9.345-7.175S394.12,106.585,389.558,105.985z M389.558,29.779c-4.562-0.599-8.746,2.613-9.345,7.175 c-0.599,4.562,2.613,8.746,7.175,9.345c4.562,0.599,8.746-2.613,9.345-7.175S394.12,30.378,389.558,29.779z M351.259,67.482 c-4.562-0.599-8.746,2.613-9.345,7.175c-0.599,4.562,2.613,8.746,7.175,9.345c4.562,0.599,8.746-2.613,9.345-7.175 C359.033,72.266,355.821,68.081,351.259,67.482z M427.858,67.482c-4.562-0.599-8.746,2.613-9.345,7.175 c-0.599,4.562,2.613,8.746,7.175,9.345c4.562,0.599,8.746-2.613,9.345-7.175C435.632,72.266,432.42,68.081,427.858,67.482z M151.842,218.361c-4.562-0.599-8.746,2.613-9.345,7.175s2.613,8.746,7.175,9.345s8.746-2.613,9.345-7.175 S156.404,218.961,151.842,218.361z" fill="#26567b"/></g></svg>